<?xml version="1.0" encoding="utf-8"?>
<!-- Generator: Adobe Illustrator 26.0.3, SVG Export Plug-In . SVG Version: 6.00 Build 0)  -->
<svg version="1.1" id="Layer_1" xmlns="http://www.w3.org/2000/svg" xmlns:xlink="http://www.w3.org/1999/xlink" x="0px" y="0px"
	 viewBox="2432.638 322.681 389.106 251.476" enable-background="new 2432.638 322.681 389.106 251.476" xml:space="preserve">
<path d="M594.293,199.485c0.95-1.92,1.871-3.716,2.712-5.548c0.135-0.293,0.003-0.793-0.157-1.123
	c-1.15-2.372-2.337-4.725-3.516-7.083c-2.355-4.711-4.712-9.421-7.065-14.134c-0.117-0.235-0.202-0.486-0.348-0.84
	c3.318,0,6.527-0.015,9.735,0.028c0.263,0.004,0.625,0.358,0.765,0.637c0.965,1.927,1.852,3.892,2.825,5.815
	c0.986,1.949,2.042,3.863,3.16,5.968c0.835-1.646,1.621-3.178,2.392-4.717c1.181-2.357,2.336-4.728,3.546-7.07
	c0.15-0.291,0.565-0.628,0.862-0.633c3.182-0.046,6.365-0.028,9.709-0.028c-0.527,1.07-0.999,2.042-1.482,3.007
	c-3.17,6.338-6.335,12.678-9.527,19.005c-0.292,0.579-0.314,1.015,0,1.603c0.884,1.655,1.684,3.354,2.602,5.21
	c1.118-2.208,2.154-4.241,3.178-6.281c5.64-11.226,11.282-22.45,16.906-33.684c0.594-1.187,1.06-2.437,1.607-3.648
	c0.707-1.568,1.912-2.503,3.643-2.603c1.735-0.101,3,0.723,3.918,2.175c6.244,9.872,9.756,20.62,10.379,32.296
	c0.677,12.697-1.882,24.717-8.159,35.769c-10.821,19.052-27.093,30.67-48.819,33.832c-20.301,2.954-38.373-2.63-53.727-16.288
	c-12.501-11.121-19.962-25.126-21.698-41.774c-2.582-24.769,6.064-45.117,25.477-60.712c9.684-7.78,20.904-12.222,33.254-13.469
	c19.382-1.958,36.48,3.555,51.248,16.272c1.546,1.331,2.212,2.95,1.593,4.948c-0.549,1.771-1.807,2.797-3.633,3.058
	c-1.536,0.219-2.785-0.414-3.915-1.418c-4.148-3.688-8.744-6.703-13.772-9.055c-19.993-9.351-43.725-6.48-60.644,7.694
	c-15.882,13.304-22.819,30.498-20.94,51.116c0.907,9.954,4.468,19.038,10.311,27.148c9.665,13.414,22.717,21.533,39.084,23.807
	c16.468,2.288,31.347-1.926,44.273-12.438c11.087-9.017,17.901-20.67,20.44-34.74c2.023-11.212,0.722-22.099-3.647-32.618
	c-0.115-0.276-0.274-0.532-0.492-0.948c-0.932,1.857-1.812,3.589-2.674,5.33c-6.238,12.611-12.476,25.223-18.693,37.844
	c-0.272,0.552-0.59,0.721-1.176,0.713c-2.227-0.031-4.455-0.038-6.681,0.002c-0.581,0.01-0.837-0.208-1.076-0.696
	c-1.171-2.39-2.38-4.761-3.674-7.336c-0.662,1.304-1.244,2.442-1.818,3.583c-0.631,1.254-1.279,2.5-1.868,3.774
	c-0.238,0.514-0.544,0.679-1.099,0.671c-2.158-0.031-4.318-0.049-6.475,0.007c-0.762,0.02-1.134-0.232-1.472-0.912
	c-4.491-9.046-9.016-18.076-13.533-27.11c-0.536-1.072-1.094-2.134-1.594-3.222c-0.23-0.501-0.516-0.694-1.088-0.692
	c-6.819,0.022-13.637,0.001-20.456,0.022c-2.402,0.007-4.183,1.735-4.205,4.14c-0.044,4.762-0.044,9.525,0.003,14.287
	c0.023,2.322,1.801,4.084,4.135,4.112c3.974,0.048,7.949,0.046,11.923-0.002c2.194-0.026,3.728-1.437,4.096-3.585
	c0.028-0.165,0.08-0.326,0.135-0.544c3.015,0,6.007,0,9.08,0c0.092,2.304-0.443,4.407-1.553,6.331
	c-2.407,4.17-5.981,6.722-10.842,6.938c-4.479,0.199-8.98,0.206-13.459,0.006c-6.908-0.309-12.295-5.499-12.629-12.371
	c-0.269-5.535-0.265-11.109,0.057-16.639c0.378-6.496,6.291-11.841,12.804-11.895c8.84-0.073,17.68-0.027,26.52,0.003
	c0.346,0.001,0.861,0.274,1.011,0.567c2.12,4.145,4.19,8.315,6.272,12.479c2.551,5.101,5.102,10.202,7.656,15.301
	C594.04,199.21,594.121,199.277,594.293,199.485z"/>
<text transform="matrix(1 0 0 1 367.6274 332.1246)" font-family="'Gotham-Medium'" font-size="68.4313px">CaspianWeb</text>
<path d="M1687.379,295.983v-0.087c0-8.638,6.467-15.712,15.625-15.712c5.642,0,9.028,1.953,11.936,4.731l-3.429,3.95
	c-2.474-2.257-5.035-3.733-8.55-3.733c-5.73,0-9.983,4.731-9.983,10.677v0.087c0,5.946,4.21,10.764,10.026,10.764
	c3.689,0,6.12-1.476,8.724-3.906l3.429,3.472c-3.082,3.342-6.684,5.382-12.327,5.382
	C1693.975,311.608,1687.379,304.707,1687.379,295.983z"/>
<path d="M1752.523,306.66l3.212-3.82c2.951,2.561,5.816,3.95,9.592,3.95c3.299,0,5.382-1.563,5.382-3.82v-0.087
	c0-2.127-1.215-3.385-6.858-4.644c-6.467-1.519-10.113-3.515-10.113-9.071v-0.087c0-5.208,4.34-8.81,10.373-8.81
	c4.471,0,7.899,1.345,11.025,3.819l-2.865,4.037c-2.778-2.04-5.469-3.125-8.247-3.125c-3.125,0-4.948,1.563-4.948,3.603v0.087
	c0,2.344,1.389,3.385,7.248,4.774c6.381,1.649,9.723,3.82,9.723,8.898v0.087c0,5.73-4.47,9.072-10.851,9.072
	C1760.51,311.521,1756.169,309.958,1752.523,306.66z"/>
<path d="M1782.339,280.704h11.98c7.118,0,11.545,4.037,11.545,10.157v0.087c0,6.771-5.425,10.373-12.152,10.373h-6.033v9.766h-5.339
	V280.704z M1793.885,296.503c4.036,0,6.554-2.257,6.554-5.426v-0.087c0-3.603-2.561-5.426-6.554-5.426h-6.207v10.938H1793.885z"/>
<path d="M1811.635,280.704h5.338v30.383h-5.338V280.704z"/>
<path d="M1845.442,303.753l3.082,7.332h5.645L1840.8,280.49h-4.947l-13.369,30.595h5.467l3.127-7.332l1.953-4.731l5.207-12.152
	l5.251,12.152L1845.442,303.753z"/>
<path d="M1740.956,303.731l3.082,7.332h5.645l-13.369-30.595h-4.947l-13.369,30.595h5.467l3.127-7.332l1.953-4.731l5.207-12.152
	l5.251,12.152L1740.956,303.731z"/>
<path d="M1859.375,280.704h4.948l16.276,21.007v-21.007h5.252v30.383h-4.47l-16.754-21.615v21.615h-5.251V280.704z"/>
<path d="M1891.317,280.704h5.772l7.248,22.527l7.466-22.613h4.514l7.465,22.613l7.248-22.527h5.599l-10.547,30.599h-4.644
	l-7.465-21.832l-7.466,21.832h-4.644L1891.317,280.704z"/>
<path d="M1943.125,293.377v4.82h15.107v-4.82H1943.125L1943.125,293.377z M1943.125,285.481h17.061v-4.776h-17.061V285.481
	L1943.125,285.481z M1943.125,306.315v4.769h17.276v-4.769H1943.125L1943.125,306.315z"/>
<path d="M1986.005,295.286c2.258-1.173,4.344-3.082,4.344-6.767v-0.089c0-1.998-0.698-3.691-2.042-5.036
	c-1.782-1.776-4.427-2.689-7.941-2.689h-13.629v30.379h14.061c6.773,0,11.238-2.905,11.238-8.334v-0.082
	C1992.036,298.502,1989.607,296.548,1986.005,295.286z M1986.702,302.186c0,2.778-2.214,4.167-5.86,4.167h-8.854v-20.917h7.68
	c3.469,0,5.34,1.433,5.34,3.862v0.089c0,2.778-2.258,4.122-5.733,4.122h-4.357v4.509h5.53c4.211,0,6.253,1.478,6.253,4.084V302.186z
	"/>
<g>
	<path d="M969.146,307.841v-0.104c0-10.319,7.726-18.771,18.666-18.771c6.741,0,10.785,2.334,14.259,5.652l-4.096,4.718
		c-2.955-2.696-6.015-4.459-10.215-4.459c-6.844,0-11.926,5.652-11.926,12.755v0.104c0,7.103,5.03,12.859,11.978,12.859
		c4.407,0,7.312-1.763,10.422-4.667l4.096,4.148c-3.682,3.993-7.985,6.43-14.726,6.43
		C977.027,326.507,969.146,318.263,969.146,307.841z"/>
	<path d="M1021.876,289.33h5.912l15.97,36.555h-6.741l-3.682-8.763h-17.163l-3.734,8.763h-6.533L1021.876,289.33z M1031.002,311.47
		l-6.273-14.518l-6.223,14.518H1031.002z"/>
	<path d="M1046.971,320.596l3.837-4.563c3.525,3.06,6.948,4.718,11.458,4.718c3.941,0,6.43-1.867,6.43-4.563v-0.104
		c0-2.541-1.452-4.044-8.192-5.548c-7.726-1.815-12.081-4.2-12.081-10.837v-0.104c0-6.222,5.185-10.525,12.392-10.525
		c5.341,0,9.437,1.607,13.17,4.562l-3.421,4.823c-3.319-2.437-6.533-3.734-9.853-3.734c-3.734,0-5.91,1.867-5.91,4.304v0.104
		c0,2.8,1.659,4.044,8.658,5.703c7.623,1.97,11.615,4.563,11.615,10.629v0.104c0,6.845-5.341,10.837-12.963,10.837
		C1056.511,326.404,1051.326,324.537,1046.971,320.596z"/>
	<path d="M1082.59,289.589h14.311c8.503,0,13.792,4.823,13.792,12.134v0.104c0,8.089-6.48,12.392-14.517,12.392h-7.208v11.667
		h-6.378V289.589z M1096.383,308.463c4.821,0,7.83-2.696,7.83-6.482v-0.104c0-4.304-3.06-6.482-7.83-6.482h-7.415v13.067H1096.383z"
		/>
	<path d="M1117.587,289.589h6.378v36.296h-6.378V289.589z"/>
	<path d="M1146.517,289.33h5.912l15.97,36.555h-6.741l-3.682-8.763h-17.163l-3.734,8.763h-6.533L1146.517,289.33z M1155.643,311.47
		l-6.273-14.518l-6.223,14.518H1155.643z"/>
	<path d="M1174.619,289.589h5.91l19.445,25.096v-25.096h6.274v36.296h-5.341l-20.016-25.822v25.822h-6.273V289.589z"/>
	<path d="M1286.115,304.731h24.738v5.751h-24.738V304.731z M1282.494,312.505v7.675h20.79v5.705h-27.17v-36.3h26.912v5.705h-20.533
		v7.978V312.505z"/>
	<path d="M1333.871,307.012c2.697-1.402,5.19-3.682,5.19-8.092v-0.098c0-2.387-0.833-4.41-2.44-6.016
		c-2.129-2.129-5.288-3.22-9.486-3.22h-16.282v36.3h16.797c8.092,0,13.433-3.47,13.433-9.956v-0.106
		C1341.084,310.845,1338.174,308.512,1333.871,307.012z M1317.126,295.238h9.175c4.152,0,6.38,1.712,6.38,4.622v0.098
		c0,3.319-2.697,4.925-6.849,4.925h-8.706V295.238z M1334.704,315.255c0,3.319-2.644,4.978-7.001,4.978h-10.577v-9.956h10.107
		c5.031,0,7.47,1.765,7.47,4.872V315.255z"/>
	<text transform="matrix(0.845 0 0 1 1223.9363 325.3706)" font-family="'ErasITC-Demi'" font-size="53.9067px">W</text>
</g>
<g>
	<polygon points="1183.599,161.744 1183.599,178.382 1137.564,151.303 1093.195,176.837 1107.386,151.561 1136.783,134.665 	"/>
	<polygon points="1201.632,151.591 1201.473,205.673 1187.047,213.962 1187.592,160.547 1143.352,134.801 1172.333,134.513 	"/>
	<polygon points="1219.596,216.417 1172.924,243.746 1158.46,235.525 1204.753,208.871 1204.465,157.69 1219.437,182.511 	"/>
	<polygon points="1216.717,221.917 1202.662,247.269 1173.348,264.316 1126.396,237.487 1126.305,220.849 1172.484,247.686 	"/>
	<polygon points="1165.832,263.824 1136.851,263.657 1107.825,246.117 1108.841,192.043 1123.395,183.989 1122.001,237.381 	"/>
	<polygon points="1105.469,190.49 1105.674,241.67 1090.748,216.826 1090.634,182.921 1137.351,155.667 1151.8,163.911 	"/>
</g>
<text transform="matrix(1 0 0 1 363.0714 641.2045)" fill="#FFFFFF" font-family="'Gotham-Medium'" font-size="68.4313px">CaspianWeb</text>
<line fill="#FFFFFF" x1="446.256" y1="643.636" x2="446.25" y2="643.636"/>
<line fill="#FFFFFF" x1="446.256" y1="643.636" x2="446.25" y2="643.636"/>
<path fill="#FFFFFF" d="M564.495,548.164c-0.028,0.096-0.057,0.192-0.073,0.294"/>
<path fill="#FFFFFF" d="M671.505,471.411c0,0.187-0.017,0.367-0.057,0.548c0,0.011,0,0.017-0.006,0.028l-0.124,0.452l-25.221,91.187
	c0.006,0.006,0,0.011,0,0.017l-0.102,0.367c0,0.006-0.006,0.011-0.006,0.017c-0.407,1.153-1.504,1.979-2.793,1.979h-19.019
	c-1.227,0-2.278-0.741-2.731-1.798c0,0,0-0.006-0.006-0.011l-0.181-0.622l-11.556-39.428l-11.624,39.445
	c0,0.011-0.006,0.028-0.011,0.04l-0.164,0.565c0,0.006,0,0.006,0,0.006c0,0.006-0.006,0.011-0.006,0.017
	c-0.458,1.052-1.504,1.786-2.725,1.786h-64.728c15.361-4.755,27.612-16.582,32.927-31.683c0.006-0.006,0.006-0.011,0.011-0.017
	c0.113-0.322,0.221-0.639,0.328-0.967c0-0.006,0-0.006,0-0.011c0.028-0.141,0.039-0.294,0.039-0.441c0-1.64-1.328-2.968-2.968-2.968
	h-19.787c-4.63,9.458-14.354,15.977-25.599,15.977c-15.728,0-28.483-12.754-28.483-28.483c0-15.734,12.754-28.488,28.483-28.488
	c11.262,0,20.997,6.536,25.622,16.022h19.765c1.64,0,2.963-1.323,2.963-2.962c0-0.192-0.017-0.384-0.057-0.565
	c0-0.006,0-0.006,0-0.011c-0.051-0.249-0.13-0.486-0.243-0.712c0-0.011-0.006-0.017-0.011-0.028
	c-5.427-15.593-18.233-27.72-34.238-32.22h38.597c1.176,0,2.193,0.684,2.668,1.679c0,0.006,0.006,0.011,0.006,0.017l0.288,1.148
	l16.429,65.847l12.992-48.932l-4.15-15.593c0-0.006-0.006-0.011-0.006-0.017l-0.237-0.882c0-0.006,0-0.006,0-0.006
	c-0.011-0.102-0.017-0.198-0.017-0.3c0-1.634,1.329-2.962,2.968-2.962h13.998c1.266,0,2.352,0.797,2.77,1.911
	c0.006,0.017,0.011,0.034,0.017,0.051l0.153,0.611l16.367,65.819l16.565-65.977c0-0.011,0.006-0.023,0.006-0.034l0.073-0.294
	c0-0.006,0.006-0.017,0.006-0.023c0-0.006,0.006-0.011,0.006-0.017c0.39-1.187,1.504-2.047,2.821-2.047c0.006,0,0.006,0,0.011,0
	h17.012C670.176,468.449,671.505,469.778,671.505,471.411z"/>
<text transform="matrix(1 0 0 1 948.4516 634.5304)" font-family="'Gotham-Medium'" font-size="68.4313px">CaspianWeb</text>
<text transform="matrix(1 0 0 1 2056.1113 1009.8499)" font-family="'Ruberoid-UltraLight'" font-size="68.4313px">CaspianWeb</text>
<text transform="matrix(1 0 0 1 1528.332 717.2346)" font-family="'AstronomusRegular'" font-size="45.197px">CaspianWeb</text>
<path d="M1256.885,464.737c0,0.187-0.017,0.368-0.057,0.548c0,0.011,0,0.017-0.006,0.028l-0.124,0.452l-25.221,91.187
	c0.006,0.006,0,0.011,0,0.017l-0.102,0.367c0,0.006-0.006,0.011-0.006,0.017c-0.407,1.153-1.504,1.979-2.793,1.979h-19.019
	c-1.227,0-2.278-0.741-2.731-1.798c0,0,0-0.006-0.006-0.011l-0.181-0.622l-11.556-39.428l-11.624,39.445
	c0,0.011-0.006,0.028-0.011,0.04l-0.164,0.565c0,0.006,0,0.006,0,0.006c0,0.006-0.006,0.011-0.006,0.017
	c-0.458,1.052-1.504,1.787-2.725,1.787h-64.728c15.361-4.755,27.612-16.582,32.927-31.683c0.006-0.006,0.006-0.011,0.011-0.017
	c0.113-0.322,0.22-0.639,0.328-0.967c0-0.006,0-0.006,0-0.011c0.028-0.141,0.04-0.294,0.04-0.441c0-1.64-1.329-2.968-2.968-2.968
	h-19.788c-4.63,9.458-14.354,15.977-25.599,15.977c-15.728,0-28.483-12.755-28.483-28.483c0-15.734,12.755-28.488,28.483-28.488
	c11.262,0,20.997,6.536,25.622,16.022h19.765c1.64,0,2.963-1.323,2.963-2.962c0-0.192-0.017-0.384-0.057-0.565
	c0-0.006,0-0.006,0-0.011c-0.051-0.249-0.13-0.486-0.243-0.712c0-0.011-0.006-0.017-0.011-0.028
	c-5.427-15.593-18.233-27.719-34.238-32.22h38.597c1.176,0,2.193,0.684,2.668,1.679c0,0.006,0.006,0.011,0.006,0.017l0.288,1.148
	l16.429,65.847l12.992-48.932l-4.15-15.593c0-0.006-0.006-0.011-0.006-0.017l-0.237-0.882c0-0.006,0-0.006,0-0.006
	c-0.011-0.102-0.017-0.198-0.017-0.3c0-1.634,1.329-2.962,2.968-2.962h13.998c1.266,0,2.352,0.797,2.77,1.911
	c0.006,0.017,0.011,0.034,0.017,0.051l0.153,0.611l16.367,65.819l16.565-65.977c0-0.011,0.006-0.023,0.006-0.034l0.074-0.294
	c0-0.006,0.006-0.017,0.006-0.023c0-0.006,0.006-0.011,0.006-0.017c0.39-1.187,1.504-2.047,2.821-2.047c0.006,0,0.006,0,0.011,0
	h17.012C1255.556,461.775,1256.885,463.103,1256.885,464.737z"/>
<path fill="#FFFFFF" d="M587.251,549.617c-0.023,0.153-0.068,0.311-0.124,0.452"/>
<path fill="#FFFFFF" d="M513.879,641.261c-0.028,0.198-0.09,0.384-0.164,0.565"/>
<g>
	<path stroke="#000000" stroke-width="0.7074" stroke-miterlimit="10" d="M1105.327,924.17c-0.014,0-0.035,0.007-0.049,0
		c-0.007,0-0.007,0-0.007,0c-0.092,0.014-0.184,0.014-0.269,0.014c-0.233,0-0.453-0.014-0.679-0.05c0,0.007-0.007,0-0.007,0
		c-0.007,0-0.014,0-0.021,0"/>
	<path stroke="#000000" stroke-width="0.7074" stroke-miterlimit="10" d="M1104.294,824.288c0.007,0,0.014,0,0.021,0
		c0,0,0.007-0.007,0.007,0c0.226-0.035,0.446-0.05,0.679-0.05c0.085,0,0.177,0,0.269,0.014c0,0,0,0,0.007,0
		c0.014-0.007,0.035,0,0.049,0"/>
	<path stroke="#000000" stroke-width="0.7074" stroke-miterlimit="10" d="M1104.294,924.134
		c-23.522-1.125-42.283-23.048-42.283-49.923c0-26.882,18.761-48.799,42.283-49.923c-8.723,1.125-15.67,23.041-15.67,49.923
		C1088.624,901.086,1095.571,923.009,1104.294,924.134z"/>
	<path stroke="#000000" stroke-width="0.7074" stroke-miterlimit="10" d="M1105.327,824.252c-0.021-0.007-0.035-0.007-0.049,0
		c-0.007,0-0.007,0-0.007,0c-0.318,0.007-0.637,0.014-0.948,0.035c0-0.007-0.007,0-0.007,0c-0.007-0.007-0.014-0.007-0.021,0"/>
	<path stroke="#000000" stroke-width="0.7074" stroke-miterlimit="10" d="M1104.294,924.134c0.007,0.007,0.014,0.007,0.021,0
		c0,0,0.007,0.007,0.007,0c0.311,0.021,0.63,0.028,0.948,0.035c0,0,0,0,0.007,0c0.014,0.007,0.028,0.007,0.049,0"/>
	<path stroke="#000000" stroke-width="0.7074" stroke-miterlimit="10" d="M1166.293,825.2
		c-16.497,6.742-21.555,26.854-21.555,26.854c-6.141-15.174-16.978-26.854-16.978-26.854S1155.816,825.08,1166.293,825.2z"/>
	<path stroke="#000000" stroke-width="0.7074" stroke-miterlimit="10" d="M1145.339,890.588v33.589h-26.133
		C1119.206,924.177,1137.875,911.294,1145.339,890.588z"/>
	<polygon stroke="#000000" stroke-width="0.7074" stroke-miterlimit="10" points="1222.166,825.151 1175.56,924.177 
		1160.754,893.177 1195.248,825.151 	"/>
	<polygon stroke="#000000" stroke-width="0.7074" stroke-miterlimit="10" points="1276.744,825.992 1230.139,925.019 
		1215.332,894.019 1249.826,825.992 	"/>
</g>
<line x1="1656.48" y1="623.03" x2="1656.48" y2="623.02"/>
<line x1="1741.25" y1="623.03" x2="1741.25" y2="623.02"/>
<polygon points="1749.93,574.85 1749.93,638.51 1698.87,605.65 1647.8,638.51 1647.8,574.85 1659.29,568.34 1659.29,578.04 
	1656.48,580.47 1656.48,623.02 1698.87,596.38 1741.25,623.02 1741.25,580.47 1738.44,578.04 1738.44,568.34 "/>
<polygon points="1726.35,561.62 1726.35,594.34 1717.59,587.7 1717.59,566.77 1698.27,556.13 1680.14,567.11 1680.14,604.21 
	1671.38,609.7 1671.38,561.74 1698.44,545.4 "/>
<polygon points="1726.35,633.06 1726.35,646.94 1698.52,662.85 1671.38,647.62 1671.38,627.45 1680.14,622.51 1680.14,641.91 
	1698.87,652.64 1717.84,641.91 1717.84,627.36 "/>
<text transform="matrix(1 0 0 1 1953.0435 714.2119)" font-family="'Stencil'" font-size="45.197px">CaspianWeb</text>
<line x1="2056.111" y1="623.03" x2="2056.111" y2="623.02"/>
<line x1="2140.881" y1="623.03" x2="2140.881" y2="623.02"/>
<polygon points="2149.561,574.85 2149.561,638.51 2098.501,605.65 2047.431,638.51 2047.431,574.85 2058.921,568.34 
	2058.921,578.04 2056.111,580.47 2056.111,623.02 2098.501,596.38 2140.881,623.02 2140.881,580.47 2138.071,578.04 
	2138.071,568.34 "/>
<polygon points="2125.981,561.62 2125.981,594.34 2117.221,587.7 2117.221,566.77 2097.901,556.13 2079.771,567.11 2079.771,604.21 
	2071.011,609.7 2071.011,561.74 2098.071,545.4 "/>
<polygon points="2125.981,633.06 2125.981,646.94 2098.151,662.85 2071.011,647.62 2071.011,627.45 2079.771,622.51 
	2079.771,641.91 2098.501,652.64 2117.471,641.91 2117.471,627.36 "/>
<text transform="matrix(1 0 0 1 930.5759 1009.8499)" font-family="'BlackOpsOne-Regular'" font-size="71.6156px">CaspianWeb</text>
<line fill="#FFFFFF" x1="2631.306" y1="436.733" x2="2631.306" y2="436.722"/>
<line fill="#FFFFFF" x1="2631.306" y1="436.733" x2="2631.306" y2="436.722"/>
<polygon fill="#FFFFFF" points="2688.513,382.759 2688.513,454.075 2631.312,417.263 2574.099,454.075 2574.099,382.759 
	2586.971,375.466 2586.971,386.332 2583.823,389.055 2583.823,436.722 2631.312,406.878 2678.789,436.722 2678.789,389.055 
	2675.641,386.332 2675.641,375.466 "/>
<polygon fill="#FFFFFF" points="2662.097,367.937 2662.097,404.593 2652.283,397.154 2652.283,373.707 2630.639,361.787 
	2610.329,374.088 2610.329,415.65 2600.515,421.8 2600.515,368.072 2630.83,349.766 "/>
<polygon fill="#FFFFFF" points="2662.097,447.97 2662.097,463.519 2630.919,481.343 2600.515,464.281 2600.515,441.685 
	2610.329,436.151 2610.329,457.884 2631.312,469.905 2652.563,457.884 2652.563,441.584 "/>
<line fill="none" x1="1941.222" y1="298.197" x2="1941.222" y2="293.377"/>
<polyline fill="none" points="1941.222,306.315 1941.222,311.085 1941.222,311.966 "/>
<polyline fill="none" points="1941.222,285.481 1941.222,280.705 1941.222,280.363 "/>
<polyline fill="none" points="1971.988,299.643 1971.988,298.02 1971.988,293.51 1971.988,292.439 "/>
<line fill="none" x1="1974.918" y1="298.02" x2="1974.918" y2="293.51"/>
<g>
	<path fill="#FFFFFF" d="M2492.792,515.036v-0.079c0-7.854,5.88-14.288,14.208-14.288c5.131,0,8.209,1.776,10.853,4.302
		l-3.118,3.591c-2.25-2.052-4.578-3.394-7.775-3.394c-5.21,0-9.077,4.302-9.077,9.709v0.079c0,5.407,3.828,9.788,9.117,9.788
		c3.354,0,5.565-1.342,7.933-3.552l3.118,3.157c-2.802,3.039-6.078,4.894-11.209,4.894
		C2498.79,529.244,2492.792,522.969,2492.792,515.036z"/>
	<path fill="#FFFFFF" d="M2552.028,524.744l2.921-3.473c2.684,2.329,5.289,3.591,8.722,3.591c3,0,4.894-1.421,4.894-3.473v-0.079
		c0-1.934-1.105-3.078-6.236-4.223c-5.881-1.381-9.196-3.197-9.196-8.248v-0.079c0-4.736,3.946-8.011,9.432-8.011
		c4.065,0,7.183,1.223,10.025,3.473l-2.605,3.671c-2.526-1.855-4.973-2.842-7.499-2.842c-2.842,0-4.499,1.421-4.499,3.276v0.079
		c0,2.131,1.263,3.078,6.591,4.341c5.802,1.5,8.841,3.473,8.841,8.091v0.079c0,5.21-4.065,8.249-9.867,8.249
		C2559.291,529.165,2555.344,527.744,2552.028,524.744z"/>
	<path fill="#FFFFFF" d="M2579.141,501.143h10.893c6.472,0,10.498,3.671,10.498,9.236v0.079c0,6.157-4.933,9.432-11.051,9.432
		h-5.486v8.88h-4.855V501.143z M2589.639,515.509c3.67,0,5.96-2.052,5.96-4.934v-0.079c0-3.276-2.329-4.934-5.96-4.934h-5.644v9.946
		H2589.639z"/>
	<path fill="#FFFFFF" d="M2605.78,501.143h4.854v27.627h-4.854V501.143z"/>
	<path fill="#FFFFFF" d="M2636.521,522.101l2.803,6.667h5.133l-12.157-27.82h-4.498l-12.157,27.82h4.971l2.843-6.667l1.776-4.302
		l4.735-11.05l4.775,11.05L2636.521,522.101z"/>
	<path fill="#FFFFFF" d="M2541.51,522.081l2.803,6.667h5.133l-12.157-27.82h-4.498l-12.157,27.82h4.971l2.843-6.667l1.776-4.302
		l4.735-11.05l4.775,11.05L2541.51,522.081z"/>
	<path fill="#FFFFFF" d="M2649.19,501.143h4.5l14.8,19.102v-19.102h4.776v27.627h-4.065l-15.235-19.655v19.655h-4.775V501.143z"/>
	<path fill="#FFFFFF" d="M2678.236,501.143h5.249l6.591,20.484l6.789-20.563h4.104l6.788,20.563l6.591-20.484h5.091l-9.591,27.824
		h-4.223l-6.788-19.852l-6.789,19.852h-4.223L2678.236,501.143z"/>
	<path fill="#FFFFFF" d="M2725.345,512.666v4.383h13.737v-4.383H2725.345L2725.345,512.666z M2725.345,505.486h15.513v-4.343
		h-15.513V505.486L2725.345,505.486z M2725.345,524.431v4.337h15.709v-4.337H2725.345L2725.345,524.431z"/>
	<path fill="#FFFFFF" d="M2764.336,514.402c2.053-1.067,3.95-2.803,3.95-6.153v-0.081c0-1.817-0.634-3.356-1.857-4.579
		c-1.621-1.615-4.025-2.445-7.22-2.445h-12.394v27.624h12.786c6.159,0,10.219-2.641,10.219-7.578v-0.075
		C2769.821,517.326,2767.612,515.55,2764.336,514.402z M2764.97,520.677c0,2.526-2.013,3.789-5.329,3.789h-8.051v-19.02h6.984
		c3.155,0,4.856,1.303,4.856,3.512v0.081c0,2.526-2.053,3.749-5.213,3.749h-3.962v4.1h5.029c3.829,0,5.686,1.344,5.686,3.714
		V520.677z"/>
	<line fill="#FFFFFF" x1="2723.615" y1="517.049" x2="2723.615" y2="512.666"/>
	<polyline fill="#FFFFFF" points="2723.615,524.431 2723.615,528.768 2723.615,529.57 	"/>
	<polyline fill="#FFFFFF" points="2723.615,505.486 2723.615,501.144 2723.615,500.832 	"/>
	<polyline fill="#FFFFFF" points="2751.591,518.364 2751.591,516.888 2751.591,512.788 2751.591,511.813 	"/>
	<line fill="#FFFFFF" x1="2754.255" y1="516.888" x2="2754.255" y2="512.788"/>
</g>
<line x1="2631.306" y1="145.67" x2="2631.306" y2="145.658"/>
<line x1="2631.306" y1="145.67" x2="2631.306" y2="145.658"/>
<polygon points="2688.513,91.695 2688.513,163.011 2631.312,126.199 2574.099,163.011 2574.099,91.695 2586.971,84.402 
	2586.971,95.268 2583.823,97.991 2583.823,145.658 2631.312,115.814 2678.789,145.658 2678.789,97.991 2675.641,95.268 
	2675.641,84.402 "/>
<polygon points="2662.097,76.874 2662.097,113.529 2652.283,106.09 2652.283,82.643 2630.639,70.723 2610.329,83.024 
	2610.329,124.586 2600.515,130.736 2600.515,77.008 2630.83,58.703 "/>
<polygon points="2662.097,156.906 2662.097,172.455 2630.919,190.279 2600.515,173.217 2600.515,150.621 2610.329,145.087 
	2610.329,166.82 2631.312,178.841 2652.563,166.82 2652.563,150.52 "/>
<g>
	<path d="M2492.792,223.972v-0.079c0-7.854,5.88-14.288,14.208-14.288c5.131,0,8.209,1.776,10.853,4.302l-3.118,3.591
		c-2.25-2.052-4.578-3.394-7.775-3.394c-5.21,0-9.077,4.302-9.077,9.709v0.079c0,5.407,3.828,9.788,9.117,9.788
		c3.354,0,5.565-1.342,7.933-3.552l3.118,3.157c-2.802,3.039-6.078,4.894-11.209,4.894
		C2498.79,238.18,2492.792,231.905,2492.792,223.972z"/>
	<path d="M2552.028,233.681l2.921-3.473c2.684,2.329,5.289,3.591,8.722,3.591c3,0,4.894-1.421,4.894-3.473v-0.079
		c0-1.934-1.105-3.078-6.236-4.223c-5.881-1.382-9.196-3.197-9.196-8.248v-0.079c0-4.736,3.946-8.011,9.432-8.011
		c4.065,0,7.183,1.223,10.025,3.473l-2.605,3.671c-2.526-1.855-4.973-2.842-7.499-2.842c-2.842,0-4.499,1.421-4.499,3.276v0.079
		c0,2.131,1.263,3.078,6.591,4.341c5.802,1.5,8.841,3.473,8.841,8.091v0.079c0,5.21-4.065,8.249-9.867,8.249
		C2559.291,238.101,2555.344,236.68,2552.028,233.681z"/>
	<path d="M2579.141,210.079h10.893c6.472,0,10.498,3.671,10.498,9.236v0.079c0,6.157-4.933,9.432-11.051,9.432h-5.486v8.88h-4.855
		V210.079z M2589.639,224.445c3.67,0,5.96-2.052,5.96-4.934v-0.079c0-3.276-2.329-4.934-5.96-4.934h-5.644v9.946H2589.639z"/>
	<path d="M2605.78,210.079h4.854v27.627h-4.854V210.079z"/>
	<path d="M2636.521,231.038l2.803,6.667h5.133l-12.157-27.82h-4.498l-12.157,27.82h4.971l2.843-6.667l1.776-4.302l4.735-11.05
		l4.775,11.05L2636.521,231.038z"/>
	<path d="M2541.51,231.017l2.803,6.667h5.133l-12.157-27.82h-4.498l-12.157,27.82h4.971l2.843-6.667l1.776-4.302l4.735-11.05
		l4.775,11.05L2541.51,231.017z"/>
	<path d="M2649.19,210.079h4.5l14.8,19.102v-19.102h4.776v27.627h-4.065l-15.235-19.655v19.655h-4.775V210.079z"/>
	<path d="M2678.236,210.079h5.249l6.591,20.484l6.789-20.563h4.104l6.788,20.563l6.591-20.484h5.091l-9.591,27.824h-4.223
		l-6.788-19.852l-6.789,19.852h-4.223L2678.236,210.079z"/>
	<path d="M2725.345,221.603v4.383h13.737v-4.383H2725.345L2725.345,221.603z M2725.345,214.423h15.513v-4.343h-15.513V214.423
		L2725.345,214.423z M2725.345,233.367v4.337h15.709v-4.337H2725.345L2725.345,233.367z"/>
	<path d="M2764.336,223.339c2.053-1.067,3.95-2.803,3.95-6.153v-0.081c0-1.817-0.634-3.356-1.857-4.579
		c-1.621-1.615-4.025-2.445-7.22-2.445h-12.394v27.624h12.786c6.159,0,10.219-2.641,10.219-7.578v-0.075
		C2769.821,226.262,2767.612,224.486,2764.336,223.339z M2764.97,229.613c0,2.526-2.013,3.789-5.329,3.789h-8.051v-19.02h6.984
		c3.155,0,4.856,1.303,4.856,3.512v0.081c0,2.526-2.053,3.749-5.213,3.749h-3.962v4.1h5.029c3.829,0,5.686,1.344,5.686,3.714
		V229.613z"/>
	<line fill="none" x1="2723.615" y1="225.986" x2="2723.615" y2="221.603"/>
	<polyline fill="none" points="2723.615,233.367 2723.615,237.704 2723.615,238.506 	"/>
	<polyline fill="none" points="2723.615,214.423 2723.615,210.08 2723.615,209.769 	"/>
	<polyline fill="none" points="2751.591,227.3 2751.591,225.824 2751.591,221.724 2751.591,220.749 	"/>
	<line fill="none" x1="2754.255" y1="225.824" x2="2754.255" y2="221.724"/>
</g>
</svg>
